<svg width="284" height="52" viewBox="0 0 284 52" fill="none" xmlns="http://www.w3.org/2000/svg">
<path fill-rule="evenodd" clip-rule="evenodd" d="M29.6369 33.3796L45.9378 48.1385L42.4133 36.9041L29.6369 33.3796ZM9.59124 13.5542L9.51009 19.7221L1.00024 20.1627L9.59124 13.5542Z" fill="white"/>
<path d="M45.9378 3.86182L18.1822 12.0122L17.4391 13.5542L9.37096 30.2957L24.1299 32.939L30.4079 24.5683L42.6335 8.26746L45.9378 3.86182Z" fill="white"/>
<path d="M24.1299 32.939L29.6369 33.3796L42.4133 36.9041L32.2803 26.7711L30.4079 24.5683L24.1299 32.939Z" fill="#010101"/>
<path d="M52.3259 6.94576L42.6335 8.26746L30.4079 24.5683L32.2803 26.7711L52.3259 6.94576Z" fill="#010101"/>
<path d="M9.51009 19.7221L9.37096 30.2957L17.4391 13.5542H9.59124L9.51009 19.7221Z" fill="#010101"/>
<path d="M9.37096 30.2957L24.1299 32.939M9.37096 30.2957L9.51009 19.7221M9.37096 30.2957L17.4391 13.5542M24.1299 32.939L29.6369 33.3796M24.1299 32.939L30.4079 24.5683M29.6369 33.3796L45.9378 48.1385L42.4133 36.9041M29.6369 33.3796L42.4133 36.9041M42.4133 36.9041L32.2803 26.7711M9.59124 13.5542L1.00024 20.1627L9.51009 19.7221M9.59124 13.5542L9.51009 19.7221M9.59124 13.5542H17.4391M17.4391 13.5542L18.1822 12.0122L45.9378 3.86182L42.6335 8.26746M42.6335 8.26746L52.3259 6.94576L32.2803 26.7711M42.6335 8.26746L30.4079 24.5683M32.2803 26.7711L30.4079 24.5683" stroke="white" stroke-width="0.440564"/>
<path d="M78.1695 47C77.7586 47 77.5531 46.7471 77.5531 46.2413C77.5531 45.8303 77.7586 45.6248 78.1695 45.6248C79.8134 45.6248 80.9989 45.4509 81.726 45.1032C82.4531 44.7555 82.8167 44.0125 82.8167 42.8745V16.6038C82.8167 15.5605 82.469 14.8492 81.7735 14.4699C81.1096 14.0905 79.9083 13.9008 78.1695 13.9008C77.7586 13.9008 77.5531 13.6796 77.5531 13.237C77.5531 12.7944 77.7586 12.5731 78.1695 12.5731C78.707 12.5731 79.4025 12.5889 80.256 12.6205C81.1412 12.6521 82.0738 12.6837 83.0538 12.7153C84.0338 12.7153 84.9348 12.7153 85.7567 12.7153C86.5471 12.7153 87.4322 12.7153 88.4123 12.7153C89.4239 12.6837 90.3723 12.6521 91.2575 12.6205C92.1742 12.5889 92.8855 12.5731 93.3914 12.5731C93.8656 12.5731 94.1027 12.7944 94.1027 13.237C94.1027 13.6796 93.8656 13.9008 93.3914 13.9008C91.7159 13.9008 90.5145 14.0905 89.7874 14.4699C89.0919 14.8492 88.7442 15.5605 88.7442 16.6038V42.8745C88.7442 44.0125 89.1236 44.7555 89.8823 45.1032C90.641 45.4509 91.8107 45.6248 93.3914 45.6248C93.8656 45.6248 94.1027 45.8303 94.1027 46.2413C94.1027 46.7471 93.8656 47 93.3914 47C92.8855 47 92.1742 46.9842 91.2575 46.9526C90.3723 46.921 89.4239 46.8894 88.4123 46.8577C87.4322 46.8261 86.5471 46.8103 85.7567 46.8103C84.9348 46.8103 84.0338 46.8261 83.0538 46.8577C82.0738 46.8894 81.1412 46.921 80.256 46.9526C79.4025 46.9842 78.707 47 78.1695 47ZM97.3313 47C96.8571 47 96.62 46.7313 96.62 46.1939C96.62 45.688 96.8571 45.4351 97.3313 45.4351C98.4061 45.4351 99.1333 45.198 99.5126 44.7238C99.9236 44.2496 100.129 43.4435 100.129 42.3054V28.6485C100.129 28.0162 100.082 27.5262 99.9868 27.1784C99.892 26.7991 99.6391 26.5778 99.2281 26.5146C99.0068 26.4513 98.6749 26.4039 98.2323 26.3723C97.7897 26.3091 97.4577 26.2617 97.2365 26.23C96.7939 26.1668 96.5726 25.9139 96.5726 25.4713C96.5726 24.9655 96.8097 24.7126 97.2839 24.7126C97.3787 24.7126 97.7423 24.6968 98.3745 24.6652C99.0068 24.6336 99.7181 24.6178 100.508 24.6178C101.299 24.5862 102.026 24.5703 102.69 24.5703C103.354 24.5703 103.78 24.5703 103.97 24.5703C104.76 24.602 105.156 25.0129 105.156 25.8033V28.4588C105.598 27.7317 106.183 27.0362 106.91 26.3723C107.669 25.6768 108.57 25.1078 109.613 24.6652C110.656 24.2226 111.81 24.0013 113.075 24.0013C114.244 24.0013 115.319 24.2226 116.299 24.6652C117.279 25.1078 118.07 25.8507 118.67 26.8939C119.271 27.9372 119.571 29.3756 119.571 31.2091V42.2106C119.571 43.4119 119.745 44.2496 120.093 44.7238C120.472 45.198 121.057 45.4351 121.847 45.4351C122.322 45.4351 122.559 45.688 122.559 46.1939C122.559 46.7313 122.322 47 121.847 47C121.626 47 121.231 46.9842 120.662 46.9526C120.093 46.921 119.476 46.9052 118.813 46.9052C118.149 46.8735 117.532 46.8577 116.963 46.8577C116.426 46.8577 115.825 46.8735 115.161 46.9052C114.497 46.9052 113.881 46.921 113.312 46.9526C112.774 46.9842 112.379 47 112.126 47C111.652 47 111.415 46.7313 111.415 46.1939C111.415 45.688 111.652 45.4351 112.126 45.4351C113.106 45.4351 113.739 45.198 114.023 44.7238C114.308 44.2496 114.45 43.4435 114.45 42.3054V31.873C114.45 30.0711 114.118 28.8065 113.454 28.0794C112.79 27.3207 111.858 26.9413 110.656 26.9413C109.771 26.9413 108.902 27.2259 108.048 27.7949C107.226 28.3323 106.547 29.0594 106.009 29.9762C105.503 30.893 105.25 31.9046 105.25 33.0111V42.2106C105.25 43.4119 105.424 44.2496 105.772 44.7238C106.12 45.198 106.641 45.4351 107.337 45.4351C107.843 45.4351 108.096 45.688 108.096 46.1939C108.096 46.7313 107.843 47 107.337 47C106.989 47 106.325 46.9842 105.345 46.9526C104.397 46.8894 103.512 46.8577 102.69 46.8577C102.152 46.8577 101.504 46.8735 100.746 46.9052C99.9868 46.9052 99.2913 46.921 98.6591 46.9526C98.0268 46.9842 97.5842 47 97.3313 47ZM125.802 47C125.296 47 125.043 46.7313 125.043 46.1939C125.043 45.688 125.296 45.4351 125.802 45.4351C127.13 45.4351 128.094 45.198 128.695 44.7238C129.295 44.2496 129.596 43.4435 129.596 42.3054V26.4197H125.707C125.202 26.4197 124.949 26.1668 124.949 25.661V25.2816C124.949 24.8074 125.202 24.5703 125.707 24.5703H129.596V22.5313C129.596 20.0971 129.991 18.1054 130.781 16.5564C131.572 15.0073 132.552 13.8692 133.721 13.1421C134.923 12.3834 136.14 12.004 137.373 12.004C138.953 12.004 140.329 12.3834 141.498 13.1421C142.7 13.8692 143.3 14.9283 143.3 16.3193C143.3 17.2361 143.031 17.9632 142.494 18.5006C141.957 19.038 141.182 19.3067 140.17 19.3067C139.38 19.3067 138.732 19.0696 138.226 18.5954C137.752 18.0896 137.61 17.2519 137.799 16.0822C137.894 15.4815 137.799 14.9915 137.515 14.6121C137.262 14.2328 136.867 14.1063 136.329 14.2328C135.824 14.3592 135.413 14.8809 135.096 15.7976C134.812 16.7144 134.67 18.2951 134.67 20.5396V24.5703H140.36C140.55 24.5703 140.708 24.6494 140.834 24.8074C140.992 24.9339 141.071 25.092 141.071 25.2816V25.661C141.071 26.1668 140.834 26.4197 140.36 26.4197H134.67V42.3054C134.67 43.4435 134.986 44.2496 135.618 44.7238C136.282 45.198 137.467 45.4351 139.175 45.4351C139.649 45.4351 139.886 45.688 139.886 46.1939C139.886 46.7313 139.649 47 139.175 47C138.953 47 138.432 46.9842 137.61 46.9526C136.819 46.921 135.918 46.9052 134.907 46.9052C133.927 46.8735 132.994 46.8577 132.109 46.8577C131.35 46.8577 130.513 46.8735 129.596 46.9052C128.711 46.9052 127.904 46.921 127.177 46.9526C126.482 46.9842 126.023 47 125.802 47ZM144.781 47C144.307 47 144.07 46.7313 144.07 46.1939C144.07 45.688 144.307 45.4351 144.781 45.4351C146.077 45.4351 147.041 45.198 147.674 44.7238C148.306 44.2496 148.622 43.4435 148.622 42.3054V28.7433C148.622 28.0478 148.543 27.5262 148.385 27.1784C148.258 26.8307 147.974 26.6252 147.531 26.562C147.373 26.5304 147.073 26.4988 146.63 26.4671C146.188 26.4039 145.745 26.3565 145.303 26.3249C144.892 26.2933 144.607 26.2617 144.449 26.23C144.006 26.1352 143.785 25.8823 143.785 25.4713C143.785 24.9339 144.022 24.6652 144.496 24.6652C144.591 24.6652 145.002 24.6652 145.729 24.6652C146.488 24.6336 147.326 24.6178 148.243 24.6178C149.191 24.6178 150.045 24.6178 150.803 24.6178C151.594 24.5862 152.084 24.5703 152.273 24.5703C153.064 24.5703 153.459 24.9813 153.459 25.8033V29.2175C153.901 28.4588 154.486 27.6843 155.213 26.8939C155.94 26.072 156.778 25.3923 157.727 24.8549C158.707 24.2858 159.781 24.0013 160.951 24.0013C162.785 24.0013 164.144 24.3807 165.029 25.1394C165.914 25.8981 166.357 26.8781 166.357 28.0794C166.357 28.7749 166.088 29.4862 165.551 30.2133C165.045 30.9088 164.271 31.2566 163.227 31.2566C162.058 31.2566 161.251 30.9562 160.809 30.3556C160.398 29.7233 160.192 29.1069 160.192 28.5062C160.192 27.8739 160.098 27.4314 159.908 27.1784C159.718 26.8939 159.386 26.7517 158.912 26.7517C158.09 26.7517 157.268 27.1468 156.446 27.9372C155.656 28.7275 154.992 29.7549 154.455 31.0195C153.949 32.2524 153.696 33.596 153.696 35.0502V42.2106C153.696 43.4119 154.059 44.2496 154.787 44.7238C155.545 45.198 156.494 45.4351 157.632 45.4351C158.138 45.4351 158.39 45.688 158.39 46.1939C158.39 46.7313 158.138 47 157.632 47C157.316 47 156.573 46.9842 155.403 46.9526C154.265 46.8894 152.842 46.8577 151.135 46.8577C149.681 46.8577 148.337 46.8894 147.105 46.9526C145.903 46.9842 145.129 47 144.781 47ZM175.858 47.569C173.804 47.569 172.096 47.0948 170.737 46.1464C169.409 45.198 168.745 43.6174 168.745 41.4044C168.745 39.5393 169.314 38.006 170.453 36.8047C171.622 35.5718 173.25 34.6708 175.337 34.1018C177.423 33.5011 179.858 33.2166 182.639 33.2482V31.3988C182.639 29.6917 182.339 28.3481 181.739 27.3681C181.138 26.3565 180.174 25.8507 178.846 25.8507C177.613 25.8507 176.68 26.0878 176.048 26.562C175.416 27.0046 175.258 27.5894 175.574 28.3165C176.08 29.3914 176.064 30.3556 175.526 31.2091C174.989 32.0311 174.072 32.4421 172.776 32.4421C171.986 32.4421 171.322 32.1892 170.784 31.6833C170.247 31.1459 169.978 30.403 169.978 29.4546C169.978 28.5062 170.374 27.621 171.164 26.7991C171.954 25.9771 173.029 25.3133 174.388 24.8074C175.779 24.27 177.344 24.0013 179.083 24.0013C181.96 24.0013 184.125 24.6336 185.58 25.8981C187.034 27.1626 187.761 28.9014 187.761 31.1143V41.1673C187.761 42.4319 187.887 43.2538 188.14 43.6332C188.425 43.9809 188.772 44.1548 189.183 44.1548C189.5 44.1548 189.768 44.1074 189.99 44.0125C190.242 43.8861 190.432 43.7596 190.559 43.6332C190.906 43.2854 191.254 43.3012 191.602 43.6806C191.76 43.8387 191.823 44.0125 191.792 44.2022C191.76 44.3919 191.681 44.5816 191.554 44.7713C191.112 45.4984 190.559 46.1148 189.895 46.6206C189.262 47.0948 188.488 47.3319 187.571 47.3319C186.401 47.3319 185.406 47.0316 184.584 46.431C183.793 45.8303 183.24 44.8977 182.924 43.6332C182.355 44.6764 181.533 45.5932 180.458 46.3835C179.415 47.1739 177.882 47.569 175.858 47.569ZM178.229 44.7238C179.146 44.7238 179.937 44.4709 180.6 43.9651C181.264 43.4277 181.77 42.7954 182.118 42.0683C182.466 41.3412 182.639 40.6457 182.639 39.9818V34.9079C180.142 34.8447 178.135 35.2398 176.617 36.0934C175.1 36.947 174.341 38.4486 174.341 40.5983C174.341 41.8312 174.578 42.748 175.052 43.3487C175.526 43.9177 176.064 44.2971 176.665 44.4867C177.297 44.6448 177.818 44.7238 178.229 44.7238ZM204.89 47.569C202.835 47.569 200.939 47.1897 199.2 46.431C197.493 45.6722 196.118 44.4551 195.074 42.7796C194.031 41.0725 193.509 38.8596 193.509 36.1408C193.509 33.8647 193.984 31.8098 194.932 29.9762C195.88 28.1427 197.256 26.6884 199.058 25.6136C200.86 24.5387 203.041 24.0013 205.601 24.0013C206.992 24.0013 208.289 24.27 209.49 24.8074C210.691 25.3133 211.671 26.0088 212.43 26.8939C213.189 27.7791 213.568 28.8065 213.568 29.9762C213.568 30.8614 213.268 31.6201 212.667 32.2524C212.098 32.853 211.355 33.1534 210.438 33.1534C209.522 33.1534 208.826 32.9321 208.352 32.4895C207.909 32.0153 207.704 31.4146 207.735 30.6875C207.767 30.2449 207.862 29.8972 208.02 29.6443C208.21 29.3598 208.399 29.0594 208.589 28.7433C208.779 28.4272 208.873 28.032 208.873 27.5578C208.873 27.2101 208.621 26.8307 208.115 26.4197C207.609 26.0088 206.882 25.8033 205.933 25.8033C204.922 25.8033 203.879 26.1352 202.804 26.7991C201.76 27.4314 200.875 28.5062 200.148 30.0236C199.453 31.5095 199.105 33.5485 199.105 36.1408C199.105 39.1125 199.753 41.3254 201.049 42.7796C202.345 44.2338 203.958 44.9609 205.886 44.9609C207.151 44.9609 208.241 44.7238 209.158 44.2496C210.106 43.7754 210.897 43.1906 211.529 42.4951C212.193 41.768 212.667 41.0567 212.952 40.3612C213.173 39.8554 213.536 39.7131 214.042 39.9344C214.548 40.1241 214.69 40.4877 214.469 41.0251C214.121 41.9419 213.584 42.9061 212.857 43.9177C212.161 44.9293 211.181 45.7987 209.917 46.5258C208.652 47.2213 206.977 47.569 204.89 47.569ZM218.332 47C217.858 47 217.621 46.7313 217.621 46.1939C217.621 45.688 217.858 45.4351 218.332 45.4351C219.628 45.4351 220.592 45.198 221.225 44.7238C221.857 44.2496 222.173 43.4435 222.173 42.3054V28.7433C222.173 28.0478 222.094 27.5262 221.936 27.1784C221.809 26.8307 221.525 26.6252 221.082 26.562C220.924 26.5304 220.624 26.4988 220.181 26.4671C219.739 26.4039 219.296 26.3565 218.854 26.3249C218.443 26.2933 218.158 26.2617 218 26.23C217.557 26.1352 217.336 25.8823 217.336 25.4713C217.336 24.9339 217.573 24.6652 218.047 24.6652C218.142 24.6652 218.553 24.6652 219.28 24.6652C220.039 24.6336 220.877 24.6178 221.794 24.6178C222.742 24.6178 223.596 24.6178 224.354 24.6178C225.145 24.5862 225.635 24.5703 225.824 24.5703C226.615 24.5703 227.01 24.9813 227.01 25.8033V29.2175C227.452 28.4588 228.037 27.6843 228.764 26.8939C229.491 26.072 230.329 25.3923 231.278 24.8549C232.258 24.2858 233.332 24.0013 234.502 24.0013C236.336 24.0013 237.695 24.3807 238.58 25.1394C239.465 25.8981 239.908 26.8781 239.908 28.0794C239.908 28.7749 239.639 29.4862 239.102 30.2133C238.596 30.9088 237.822 31.2566 236.778 31.2566C235.609 31.2566 234.802 30.9562 234.36 30.3556C233.949 29.7233 233.743 29.1069 233.743 28.5062C233.743 27.8739 233.649 27.4314 233.459 27.1784C233.269 26.8939 232.937 26.7517 232.463 26.7517C231.641 26.7517 230.819 27.1468 229.997 27.9372C229.207 28.7275 228.543 29.7549 228.006 31.0195C227.5 32.2524 227.247 33.596 227.247 35.0502V42.2106C227.247 43.4119 227.61 44.2496 228.338 44.7238C229.096 45.198 230.045 45.4351 231.183 45.4351C231.689 45.4351 231.941 45.688 231.941 46.1939C231.941 46.7313 231.689 47 231.183 47C230.867 47 230.124 46.9842 228.954 46.9526C227.816 46.8894 226.393 46.8577 224.686 46.8577C223.232 46.8577 221.888 46.8894 220.655 46.9526C219.454 46.9842 218.68 47 218.332 47ZM249.409 47.569C247.355 47.569 245.647 47.0948 244.288 46.1464C242.96 45.198 242.296 43.6174 242.296 41.4044C242.296 39.5393 242.865 38.006 244.004 36.8047C245.173 35.5718 246.801 34.6708 248.888 34.1018C250.974 33.5011 253.408 33.2166 256.19 33.2482V31.3988C256.19 29.6917 255.89 28.3481 255.289 27.3681C254.689 26.3565 253.725 25.8507 252.397 25.8507C251.164 25.8507 250.231 26.0878 249.599 26.562C248.967 27.0046 248.809 27.5894 249.125 28.3165C249.631 29.3914 249.615 30.3556 249.077 31.2091C248.54 32.0311 247.623 32.4421 246.327 32.4421C245.537 32.4421 244.873 32.1892 244.335 31.6833C243.798 31.1459 243.529 30.403 243.529 29.4546C243.529 28.5062 243.924 27.621 244.715 26.7991C245.505 25.9771 246.58 25.3133 247.939 24.8074C249.33 24.27 250.895 24.0013 252.634 24.0013C255.511 24.0013 257.676 24.6336 259.131 25.8981C260.585 27.1626 261.312 28.9014 261.312 31.1143V41.1673C261.312 42.4319 261.438 43.2538 261.691 43.6332C261.976 43.9809 262.323 44.1548 262.734 44.1548C263.051 44.1548 263.319 44.1074 263.541 44.0125C263.793 43.8861 263.983 43.7596 264.11 43.6332C264.457 43.2854 264.805 43.3012 265.153 43.6806C265.311 43.8387 265.374 44.0125 265.343 44.2022C265.311 44.3919 265.232 44.5816 265.105 44.7713C264.663 45.4984 264.11 46.1148 263.446 46.6206C262.813 47.0948 262.039 47.3319 261.122 47.3319C259.952 47.3319 258.957 47.0316 258.135 46.431C257.344 45.8303 256.791 44.8977 256.475 43.6332C255.906 44.6764 255.084 45.5932 254.009 46.3835C252.966 47.1739 251.433 47.569 249.409 47.569ZM251.78 44.7238C252.697 44.7238 253.488 44.4709 254.151 43.9651C254.815 43.4277 255.321 42.7954 255.669 42.0683C256.017 41.3412 256.19 40.6457 256.19 39.9818V34.9079C253.693 34.8447 251.686 35.2398 250.168 36.0934C248.651 36.947 247.892 38.4486 247.892 40.5983C247.892 41.8312 248.129 42.748 248.603 43.3487C249.077 43.9177 249.615 44.2971 250.216 44.4867C250.848 44.6448 251.369 44.7238 251.78 44.7238ZM275.738 47.569C274.379 47.569 273.193 47.2529 272.182 46.6206C271.17 45.9884 270.664 44.8029 270.664 43.0641V26.4197H267.345C266.839 26.4197 266.586 26.1668 266.586 25.661V25.5187C266.586 25.2975 266.649 25.1394 266.776 25.0445C266.934 24.9181 267.124 24.8233 267.345 24.76C269.178 24.1278 270.585 23.1794 271.565 21.9148C272.577 20.6187 273.209 18.8167 273.462 16.5089C273.462 16.0031 273.715 15.7502 274.221 15.7502H275.027C275.217 15.7502 275.391 15.8293 275.549 15.9873C275.707 16.1138 275.786 16.2877 275.786 16.5089V24.5703H281.571C282.077 24.5703 282.33 24.8074 282.33 25.2816V25.661C282.33 26.1668 282.077 26.4197 281.571 26.4197H275.786V41.4044C275.786 43.1432 276.687 44.0125 278.489 44.0125C279.342 44.0125 280.101 43.7596 280.765 43.2538C281.46 42.748 281.982 42.1632 282.33 41.4993C282.583 41.0251 282.978 40.946 283.515 41.2622C283.736 41.3886 283.847 41.5467 283.847 41.7364C283.847 41.9261 283.8 42.1474 283.705 42.4003C283.167 43.7596 282.235 44.9609 280.907 46.0042C279.611 47.0474 277.888 47.569 275.738 47.569Z" fill="white"/>
</svg>
