<svg width="235" height="44" viewBox="0 0 235 44" fill="none" xmlns="http://www.w3.org/2000/svg">
<path fill-rule="evenodd" clip-rule="evenodd" d="M24.6068 28.0833L38.0445 40.2499L35.139 30.9888L24.6068 28.0833ZM8.08203 11.7402L8.01513 16.8247L1 17.1879L8.08203 11.7402Z" fill="white"/>
<path d="M38.0445 3.75018L15.1641 10.469L14.5515 11.7402L7.90044 25.5411L20.067 27.7201L25.2423 20.8197L35.3206 7.38199L38.0445 3.75018Z" fill="white"/>
<path d="M20.067 27.7201L24.6068 28.0833L35.139 30.9888L26.7859 22.6356L25.2423 20.8197L20.067 27.7201Z" fill="#1B4279"/>
<path d="M43.3106 6.29245L35.3206 7.38199L25.2423 20.8197L26.7859 22.6356L43.3106 6.29245Z" fill="#1B4279"/>
<path d="M8.01513 16.8247L7.90044 25.5411L14.5515 11.7402H8.08203L8.01513 16.8247Z" fill="#1B4279"/>
<path d="M7.90044 25.5411L20.067 27.7201M7.90044 25.5411L8.01513 16.8247M7.90044 25.5411L14.5515 11.7402M20.067 27.7201L24.6068 28.0833M20.067 27.7201L25.2423 20.8197M24.6068 28.0833L38.0445 40.2499L35.139 30.9888M24.6068 28.0833L35.139 30.9888M35.139 30.9888L26.7859 22.6356M8.08203 11.7402L1 17.1879L8.01513 16.8247M8.08203 11.7402L8.01513 16.8247M8.08203 11.7402H14.5515M14.5515 11.7402L15.1641 10.469L38.0445 3.75018L35.3206 7.38199M35.3206 7.38199L43.3106 6.29245L26.7859 22.6356M35.3206 7.38199L25.2423 20.8197M26.7859 22.6356L25.2423 20.8197" stroke="white" stroke-width="0.363181"/>
<path d="M64.615 39.5C64.2763 39.5 64.1069 39.2915 64.1069 38.8745C64.1069 38.5358 64.2763 38.3664 64.615 38.3664C65.9702 38.3664 66.9475 38.223 67.5469 37.9364C68.1463 37.6497 68.446 37.0373 68.446 36.0991V14.4427C68.446 13.5827 68.1593 12.9964 67.586 12.6836C67.0387 12.3709 66.0484 12.2145 64.615 12.2145C64.2763 12.2145 64.1069 12.0321 64.1069 11.6673C64.1069 11.3024 64.2763 11.12 64.615 11.12C65.0581 11.12 65.6314 11.133 66.335 11.1591C67.0647 11.1852 67.8335 11.2112 68.6414 11.2373C69.4493 11.2373 70.192 11.2373 70.8696 11.2373C71.5211 11.2373 72.2508 11.2373 73.0587 11.2373C73.8926 11.2112 74.6744 11.1852 75.4041 11.1591C76.1599 11.133 76.7463 11.12 77.1632 11.12C77.5541 11.12 77.7496 11.3024 77.7496 11.6673C77.7496 12.0321 77.5541 12.2145 77.1632 12.2145C75.782 12.2145 74.7917 12.3709 74.1923 12.6836C73.619 12.9964 73.3323 13.5827 73.3323 14.4427V36.0991C73.3323 37.0373 73.645 37.6497 74.2705 37.9364C74.896 38.223 75.8602 38.3664 77.1632 38.3664C77.5541 38.3664 77.7496 38.5358 77.7496 38.8745C77.7496 39.2915 77.5541 39.5 77.1632 39.5C76.7463 39.5 76.1599 39.487 75.4041 39.4609C74.6744 39.4348 73.8926 39.4088 73.0587 39.3827C72.2508 39.3567 71.5211 39.3436 70.8696 39.3436C70.192 39.3436 69.4493 39.3567 68.6414 39.3827C67.8335 39.4088 67.0647 39.4348 66.335 39.4609C65.6314 39.487 65.0581 39.5 64.615 39.5ZM80.4111 39.5C80.0202 39.5 79.8248 39.2785 79.8248 38.8355C79.8248 38.4185 80.0202 38.21 80.4111 38.21C81.2972 38.21 81.8966 38.0145 82.2093 37.6236C82.5481 37.2327 82.7175 36.5682 82.7175 35.63V24.3718C82.7175 23.8506 82.6784 23.4467 82.6002 23.16C82.522 22.8473 82.3136 22.6648 81.9748 22.6127C81.7923 22.5606 81.5187 22.5215 81.1539 22.4955C80.789 22.4433 80.5154 22.4042 80.333 22.3782C79.9681 22.3261 79.7857 22.1176 79.7857 21.7527C79.7857 21.3358 79.9811 21.1273 80.372 21.1273C80.4502 21.1273 80.7499 21.1142 81.2711 21.0882C81.7923 21.0621 82.3787 21.0491 83.0302 21.0491C83.6817 21.023 84.2811 21.01 84.8284 21.01C85.3757 21.01 85.7275 21.01 85.8839 21.01C86.5354 21.0361 86.8611 21.3748 86.8611 22.0264V24.2155C87.226 23.6161 87.7081 23.0427 88.3075 22.4955C88.933 21.9221 89.6757 21.453 90.5357 21.0882C91.3957 20.7233 92.3469 20.5409 93.3893 20.5409C94.3536 20.5409 95.2396 20.7233 96.0475 21.0882C96.8554 21.453 97.5069 22.0655 98.002 22.9255C98.4972 23.7855 98.7448 24.9712 98.7448 26.4827V35.5518C98.7448 36.5421 98.8881 37.2327 99.1748 37.6236C99.4875 38.0145 99.9696 38.21 100.621 38.21C101.012 38.21 101.207 38.4185 101.207 38.8355C101.207 39.2785 101.012 39.5 100.621 39.5C100.439 39.5 100.113 39.487 99.6439 39.4609C99.1748 39.4348 98.6666 39.4218 98.1193 39.4218C97.572 39.3958 97.0639 39.3827 96.5948 39.3827C96.1517 39.3827 95.6566 39.3958 95.1093 39.4218C94.562 39.4218 94.0539 39.4348 93.5848 39.4609C93.1417 39.487 92.816 39.5 92.6075 39.5C92.2166 39.5 92.0211 39.2785 92.0211 38.8355C92.0211 38.4185 92.2166 38.21 92.6075 38.21C93.4154 38.21 93.9366 38.0145 94.1711 37.6236C94.4057 37.2327 94.523 36.5682 94.523 35.63V27.03C94.523 25.5445 94.2493 24.5021 93.702 23.9027C93.1548 23.2773 92.386 22.9645 91.3957 22.9645C90.666 22.9645 89.9493 23.1991 89.2457 23.6682C88.5681 24.1112 88.0078 24.7106 87.5648 25.4664C87.1478 26.2221 86.9393 27.0561 86.9393 27.9682V35.5518C86.9393 36.5421 87.0827 37.2327 87.3693 37.6236C87.656 38.0145 88.086 38.21 88.6593 38.21C89.0763 38.21 89.2848 38.4185 89.2848 38.8355C89.2848 39.2785 89.0763 39.5 88.6593 39.5C88.3727 39.5 87.8254 39.487 87.0175 39.4609C86.2357 39.4088 85.506 39.3827 84.8284 39.3827C84.3854 39.3827 83.8511 39.3958 83.2257 39.4218C82.6002 39.4218 82.0269 39.4348 81.5057 39.4609C80.9845 39.487 80.6196 39.5 80.4111 39.5ZM103.881 39.5C103.464 39.5 103.256 39.2785 103.256 38.8355C103.256 38.4185 103.464 38.21 103.881 38.21C104.976 38.21 105.771 38.0145 106.266 37.6236C106.761 37.2327 107.009 36.5682 107.009 35.63V22.5345H103.803C103.386 22.5345 103.178 22.3261 103.178 21.9091V21.5964C103.178 21.2055 103.386 21.01 103.803 21.01H107.009V19.3291C107.009 17.3224 107.334 15.6806 107.986 14.4036C108.637 13.1267 109.445 12.1885 110.409 11.5891C111.4 10.9636 112.403 10.6509 113.419 10.6509C114.722 10.6509 115.856 10.9636 116.82 11.5891C117.811 12.1885 118.306 13.0615 118.306 14.2082C118.306 14.9639 118.084 15.5633 117.641 16.0064C117.198 16.4494 116.56 16.6709 115.726 16.6709C115.074 16.6709 114.54 16.4755 114.123 16.0845C113.732 15.6676 113.615 14.977 113.771 14.0127C113.849 13.5176 113.771 13.1136 113.537 12.8009C113.328 12.4882 113.002 12.3839 112.559 12.4882C112.142 12.5924 111.804 13.0224 111.543 13.7782C111.309 14.5339 111.191 15.837 111.191 17.6873V21.01H115.882C116.039 21.01 116.169 21.0752 116.273 21.2055C116.403 21.3097 116.469 21.44 116.469 21.5964V21.9091C116.469 22.3261 116.273 22.5345 115.882 22.5345H111.191V35.63C111.191 36.5682 111.452 37.2327 111.973 37.6236C112.52 38.0145 113.498 38.21 114.905 38.21C115.296 38.21 115.491 38.4185 115.491 38.8355C115.491 39.2785 115.296 39.5 114.905 39.5C114.722 39.5 114.292 39.487 113.615 39.4609C112.963 39.4348 112.221 39.4218 111.387 39.4218C110.579 39.3958 109.81 39.3827 109.08 39.3827C108.455 39.3827 107.764 39.3958 107.009 39.4218C106.279 39.4218 105.614 39.4348 105.015 39.4609C104.442 39.487 104.064 39.5 103.881 39.5ZM119.526 39.5C119.136 39.5 118.94 39.2785 118.94 38.8355C118.94 38.4185 119.136 38.21 119.526 38.21C120.595 38.21 121.39 38.0145 121.911 37.6236C122.432 37.2327 122.693 36.5682 122.693 35.63V24.45C122.693 23.8767 122.628 23.4467 122.497 23.16C122.393 22.8733 122.159 22.7039 121.794 22.6518C121.663 22.6258 121.416 22.5997 121.051 22.5736C120.686 22.5215 120.321 22.4824 119.956 22.4564C119.618 22.4303 119.383 22.4042 119.253 22.3782C118.888 22.3 118.706 22.0915 118.706 21.7527C118.706 21.3097 118.901 21.0882 119.292 21.0882C119.37 21.0882 119.709 21.0882 120.308 21.0882C120.934 21.0621 121.624 21.0491 122.38 21.0491C123.162 21.0491 123.866 21.0491 124.491 21.0491C125.143 21.023 125.546 21.01 125.703 21.01C126.354 21.01 126.68 21.3488 126.68 22.0264V24.8409C127.045 24.2155 127.527 23.577 128.126 22.9255C128.726 22.2479 129.416 21.6876 130.198 21.2445C131.006 20.7755 131.892 20.5409 132.856 20.5409C134.368 20.5409 135.489 20.8536 136.218 21.4791C136.948 22.1045 137.313 22.9124 137.313 23.9027C137.313 24.4761 137.091 25.0624 136.648 25.6618C136.231 26.2352 135.593 26.5218 134.733 26.5218C133.769 26.5218 133.104 26.2742 132.739 25.7791C132.4 25.2579 132.231 24.7497 132.231 24.2545C132.231 23.7333 132.153 23.3685 131.996 23.16C131.84 22.9255 131.566 22.8082 131.176 22.8082C130.498 22.8082 129.82 23.1339 129.143 23.7855C128.491 24.437 127.944 25.2839 127.501 26.3264C127.084 27.3427 126.876 28.4503 126.876 29.6491V35.5518C126.876 36.5421 127.175 37.2327 127.775 37.6236C128.4 38.0145 129.182 38.21 130.12 38.21C130.537 38.21 130.746 38.4185 130.746 38.8355C130.746 39.2785 130.537 39.5 130.12 39.5C129.86 39.5 129.247 39.487 128.283 39.4609C127.345 39.4088 126.172 39.3827 124.765 39.3827C123.566 39.3827 122.458 39.4088 121.442 39.4609C120.452 39.487 119.813 39.5 119.526 39.5ZM145.145 39.9691C143.451 39.9691 142.044 39.5782 140.924 38.7964C139.829 38.0145 139.282 36.7115 139.282 34.8873C139.282 33.3497 139.751 32.0858 140.689 31.0955C141.653 30.0791 142.995 29.3364 144.715 28.8673C146.435 28.3721 148.442 28.1376 150.735 28.1636V26.6391C150.735 25.2318 150.488 24.1242 149.993 23.3164C149.497 22.4824 148.703 22.0655 147.608 22.0655C146.592 22.0655 145.823 22.2609 145.302 22.6518C144.781 23.0167 144.65 23.4988 144.911 24.0982C145.328 24.9842 145.315 25.7791 144.872 26.4827C144.429 27.1603 143.673 27.4991 142.604 27.4991C141.953 27.4991 141.406 27.2906 140.963 26.8736C140.52 26.4306 140.298 25.8182 140.298 25.0364C140.298 24.2545 140.624 23.5248 141.275 22.8473C141.927 22.1697 142.813 21.6224 143.934 21.2055C145.08 20.7624 146.37 20.5409 147.804 20.5409C150.175 20.5409 151.96 21.0621 153.159 22.1045C154.358 23.147 154.957 24.5803 154.957 26.4045V34.6918C154.957 35.7342 155.061 36.4118 155.27 36.7245C155.504 37.0112 155.791 37.1545 156.13 37.1545C156.391 37.1545 156.612 37.1155 156.794 37.0373C157.003 36.933 157.159 36.8288 157.264 36.7245C157.55 36.4379 157.837 36.4509 158.124 36.7636C158.254 36.8939 158.306 37.0373 158.28 37.1936C158.254 37.35 158.189 37.5064 158.084 37.6627C157.72 38.2621 157.264 38.7703 156.716 39.1873C156.195 39.5782 155.557 39.7736 154.801 39.7736C153.837 39.7736 153.016 39.5261 152.338 39.0309C151.687 38.5358 151.231 37.767 150.97 36.7245C150.501 37.5845 149.823 38.3403 148.937 38.9918C148.077 39.6433 146.813 39.9691 145.145 39.9691ZM147.1 37.6236C147.856 37.6236 148.507 37.4152 149.054 36.9982C149.602 36.5552 150.019 36.0339 150.305 35.4345C150.592 34.8352 150.735 34.2618 150.735 33.7145V29.5318C148.677 29.4797 147.022 29.8055 145.771 30.5091C144.52 31.2127 143.894 32.4506 143.894 34.2227C143.894 35.2391 144.09 35.9948 144.481 36.49C144.872 36.9591 145.315 37.2718 145.81 37.4282C146.331 37.5585 146.761 37.6236 147.1 37.6236ZM169.078 39.9691C167.384 39.9691 165.82 39.6564 164.387 39.0309C162.98 38.4055 161.846 37.4021 160.986 36.0209C160.126 34.6136 159.696 32.7894 159.696 30.5482C159.696 28.6718 160.087 26.9779 160.869 25.4664C161.651 23.9548 162.784 22.7561 164.27 21.87C165.755 20.9839 167.553 20.5409 169.664 20.5409C170.811 20.5409 171.879 20.7624 172.87 21.2055C173.86 21.6224 174.668 22.1958 175.293 22.9255C175.919 23.6552 176.231 24.5021 176.231 25.4664C176.231 26.1961 175.984 26.8215 175.489 27.3427C175.02 27.8379 174.407 28.0855 173.651 28.0855C172.896 28.0855 172.322 27.903 171.931 27.5382C171.567 27.1473 171.397 26.6521 171.423 26.0527C171.449 25.6879 171.528 25.4012 171.658 25.1927C171.814 24.9582 171.971 24.7106 172.127 24.45C172.283 24.1894 172.361 23.8636 172.361 23.4727C172.361 23.1861 172.153 22.8733 171.736 22.5345C171.319 22.1958 170.72 22.0264 169.938 22.0264C169.104 22.0264 168.244 22.3 167.358 22.8473C166.498 23.3685 165.768 24.2545 165.169 25.5055C164.595 26.7303 164.309 28.4112 164.309 30.5482C164.309 32.9979 164.843 34.8221 165.911 36.0209C166.98 37.2197 168.309 37.8191 169.899 37.8191C170.941 37.8191 171.84 37.6236 172.596 37.2327C173.378 36.8418 174.029 36.3597 174.551 35.7864C175.098 35.187 175.489 34.6006 175.723 34.0273C175.906 33.6103 176.205 33.493 176.622 33.6755C177.039 33.8318 177.157 34.1315 176.974 34.5745C176.688 35.3303 176.245 36.1252 175.645 36.9591C175.072 37.793 174.264 38.5097 173.221 39.1091C172.179 39.6824 170.798 39.9691 169.078 39.9691ZM180.159 39.5C179.768 39.5 179.572 39.2785 179.572 38.8355C179.572 38.4185 179.768 38.21 180.159 38.21C181.227 38.21 182.022 38.0145 182.543 37.6236C183.064 37.2327 183.325 36.5682 183.325 35.63V24.45C183.325 23.8767 183.26 23.4467 183.13 23.16C183.025 22.8733 182.791 22.7039 182.426 22.6518C182.296 22.6258 182.048 22.5997 181.683 22.5736C181.318 22.5215 180.953 22.4824 180.589 22.4564C180.25 22.4303 180.015 22.4042 179.885 22.3782C179.52 22.3 179.338 22.0915 179.338 21.7527C179.338 21.3097 179.533 21.0882 179.924 21.0882C180.002 21.0882 180.341 21.0882 180.94 21.0882C181.566 21.0621 182.256 21.0491 183.012 21.0491C183.794 21.0491 184.498 21.0491 185.123 21.0491C185.775 21.023 186.179 21.01 186.335 21.01C186.986 21.01 187.312 21.3488 187.312 22.0264V24.8409C187.677 24.2155 188.159 23.577 188.759 22.9255C189.358 22.2479 190.049 21.6876 190.83 21.2445C191.638 20.7755 192.524 20.5409 193.489 20.5409C195 20.5409 196.121 20.8536 196.85 21.4791C197.58 22.1045 197.945 22.9124 197.945 23.9027C197.945 24.4761 197.723 25.0624 197.28 25.6618C196.863 26.2352 196.225 26.5218 195.365 26.5218C194.401 26.5218 193.736 26.2742 193.371 25.7791C193.033 25.2579 192.863 24.7497 192.863 24.2545C192.863 23.7333 192.785 23.3685 192.629 23.16C192.472 22.9255 192.199 22.8082 191.808 22.8082C191.13 22.8082 190.453 23.1339 189.775 23.7855C189.123 24.437 188.576 25.2839 188.133 26.3264C187.716 27.3427 187.508 28.4503 187.508 29.6491V35.5518C187.508 36.5421 187.807 37.2327 188.407 37.6236C189.032 38.0145 189.814 38.21 190.752 38.21C191.169 38.21 191.378 38.4185 191.378 38.8355C191.378 39.2785 191.169 39.5 190.752 39.5C190.492 39.5 189.879 39.487 188.915 39.4609C187.977 39.4088 186.804 39.3827 185.397 39.3827C184.198 39.3827 183.09 39.4088 182.074 39.4609C181.084 39.487 180.445 39.5 180.159 39.5ZM205.778 39.9691C204.084 39.9691 202.676 39.5782 201.556 38.7964C200.461 38.0145 199.914 36.7115 199.914 34.8873C199.914 33.3497 200.383 32.0858 201.321 31.0955C202.285 30.0791 203.628 29.3364 205.348 28.8673C207.068 28.3721 209.074 28.1376 211.368 28.1636V26.6391C211.368 25.2318 211.12 24.1242 210.625 23.3164C210.13 22.4824 209.335 22.0655 208.24 22.0655C207.224 22.0655 206.455 22.2609 205.934 22.6518C205.413 23.0167 205.282 23.4988 205.543 24.0982C205.96 24.9842 205.947 25.7791 205.504 26.4827C205.061 27.1603 204.305 27.4991 203.237 27.4991C202.585 27.4991 202.038 27.2906 201.595 26.8736C201.152 26.4306 200.93 25.8182 200.93 25.0364C200.93 24.2545 201.256 23.5248 201.908 22.8473C202.559 22.1697 203.445 21.6224 204.566 21.2055C205.712 20.7624 207.002 20.5409 208.436 20.5409C210.807 20.5409 212.592 21.0621 213.791 22.1045C214.99 23.147 215.589 24.5803 215.589 26.4045V34.6918C215.589 35.7342 215.694 36.4118 215.902 36.7245C216.137 37.0112 216.423 37.1545 216.762 37.1545C217.023 37.1545 217.244 37.1155 217.427 37.0373C217.635 36.933 217.791 36.8288 217.896 36.7245C218.182 36.4379 218.469 36.4509 218.756 36.7636C218.886 36.8939 218.938 37.0373 218.912 37.1936C218.886 37.35 218.821 37.5064 218.717 37.6627C218.352 38.2621 217.896 38.7703 217.348 39.1873C216.827 39.5782 216.189 39.7736 215.433 39.7736C214.469 39.7736 213.648 39.5261 212.97 39.0309C212.319 38.5358 211.863 37.767 211.602 36.7245C211.133 37.5845 210.455 38.3403 209.569 38.9918C208.709 39.6433 207.445 39.9691 205.778 39.9691ZM207.732 37.6236C208.488 37.6236 209.139 37.4152 209.687 36.9982C210.234 36.5552 210.651 36.0339 210.938 35.4345C211.224 34.8352 211.368 34.2618 211.368 33.7145V29.5318C209.309 29.4797 207.654 29.8055 206.403 30.5091C205.152 31.2127 204.527 32.4506 204.527 34.2227C204.527 35.2391 204.722 35.9948 205.113 36.49C205.504 36.9591 205.947 37.2718 206.442 37.4282C206.963 37.5585 207.393 37.6236 207.732 37.6236ZM227.482 39.9691C226.361 39.9691 225.384 39.7085 224.55 39.1873C223.716 38.6661 223.299 37.6888 223.299 36.2555V22.5345H220.563C220.146 22.5345 219.937 22.3261 219.937 21.9091V21.7918C219.937 21.6094 219.989 21.4791 220.094 21.4009C220.224 21.2967 220.38 21.2185 220.563 21.1664C222.074 20.6452 223.234 19.8633 224.042 18.8209C224.876 17.7524 225.397 16.267 225.605 14.3645C225.605 13.9476 225.814 13.7391 226.231 13.7391H226.895C227.052 13.7391 227.195 13.8042 227.325 13.9345C227.456 14.0388 227.521 14.1821 227.521 14.3645V21.01H232.29C232.707 21.01 232.915 21.2055 232.915 21.5964V21.9091C232.915 22.3261 232.707 22.5345 232.29 22.5345H227.521V34.8873C227.521 36.3206 228.264 37.0373 229.749 37.0373C230.453 37.0373 231.078 36.8288 231.625 36.4118C232.199 35.9948 232.629 35.5127 232.915 34.9655C233.124 34.5745 233.45 34.5094 233.893 34.77C234.075 34.8742 234.166 35.0045 234.166 35.1609C234.166 35.3173 234.127 35.4997 234.049 35.7082C233.606 36.8288 232.837 37.8191 231.743 38.6791C230.674 39.5391 229.254 39.9691 227.482 39.9691Z" fill="white"/>
</svg>
